<?xml version="1.0" encoding="utf-8" ?>
<svg xmlns="http://www.w3.org/2000/svg" xmlns:xlink="http://www.w3.org/1999/xlink" width="1024" height="1024">
	<path d="M0 0L1024 0L1024 1024L0 1024L0 0Z"/>
	<path fill="#FEFEFE" d="M171.189 171.12L851.593 171.306L851.603 295.578C844.773 307.483 836.719 318.77 829.254 330.283L789.386 392.189L626.394 644.175C576.177 643.579 525.931 644.299 475.708 643.95C480.762 633.918 488.613 623.538 494.725 613.872Q519.084 575.586 543.886 537.583Q621.203 417.813 700.199 299.141C679.089 299.886 657.701 299.285 636.569 299.321L504.901 299.306L171.015 299.256L171.189 171.12Z"/>
	<path fill="#FEFEFE" d="M398.98 380.003L552.29 380.102C550.045 384.449 546.985 388.616 544.331 392.743Q534.409 408.194 524.019 423.334C509.415 445.04 495.231 467.069 480.84 488.921L325.66 725.769L851.634 725.687L851.592 815.908C851.595 825.931 852.8 843.892 851.426 852.994L170.933 853.055C170.913 811.357 170.359 769.566 170.99 727.877C178.105 715.551 186.692 703.69 194.45 691.739L251.469 604.582L347.435 457.948C364.548 431.968 381.088 405.448 398.98 380.003Z"/>
</svg>
